<svg width="19" height="19" viewBox="0 0 19 19" fill="none" xmlns="http://www.w3.org/2000/svg">
<path d="M15.0417 3.16667H14.1708C13.9871 2.2732 13.5009 1.4704 12.7943 0.893568C12.0877 0.316738 11.2038 0.0011515 10.2917 0H8.70833C7.79617 0.0011515 6.91229 0.316738 6.20568 0.893568C5.49906 1.4704 5.01291 2.2732 4.82917 3.16667H3.95833C2.9089 3.16792 1.90282 3.58536 1.16076 4.32742C0.418699 5.06948 0.00125734 6.07557 2.83122e-07 7.125V9.5H19V7.125C18.9987 6.07557 18.5813 5.06948 17.8392 4.32742C17.0972 3.58536 16.0911 3.16792 15.0417 3.16667ZM6.479 3.16667C6.64215 2.7052 6.94389 2.30541 7.34295 2.02199C7.742 1.73857 8.21888 1.58536 8.70833 1.58333H10.2917C10.7811 1.58536 11.258 1.73857 11.6571 2.02199C12.0561 2.30541 12.3579 2.7052 12.521 3.16667H6.479Z" fill="#222222"/>
<path d="M10.2917 11.875C10.2917 12.085 10.2083 12.2863 10.0598 12.4348C9.91133 12.5833 9.70996 12.6667 9.5 12.6667C9.29004 12.6667 9.08867 12.5833 8.94021 12.4348C8.79174 12.2863 8.70833 12.085 8.70833 11.875V11.0833H0V15.0417C0.00125705 16.0911 0.418698 17.0972 1.16076 17.8392C1.90282 18.5813 2.9089 18.9987 3.95833 19H15.0417C16.0911 18.9987 17.0972 18.5813 17.8392 17.8392C18.5813 17.0972 18.9987 16.0911 19 15.0417V11.0833H10.2917V11.875Z" fill="#222222"/>
</svg>
