<svg width="19" height="19" viewBox="0 0 19 19" fill="none" xmlns="http://www.w3.org/2000/svg">
<path d="M18.2072 8.70783C17.9969 8.70783 17.7953 8.62444 17.6466 8.47601C17.4979 8.32757 17.4144 8.12625 17.4144 7.91633C17.4127 6.23751 16.7439 4.62793 15.5548 3.44082C14.3657 2.25371 12.7535 1.58606 11.0718 1.58438C10.8615 1.58438 10.6599 1.50099 10.5112 1.35256C10.3625 1.20412 10.279 1.0028 10.279 0.792887C10.279 0.58297 10.3625 0.38165 10.5112 0.233216C10.6599 0.0847821 10.8615 0.00139276 11.0718 0.00139276C13.1738 0.00369728 15.189 0.838331 16.6753 2.32217C18.1617 3.80601 18.9977 5.81787 19 7.91633C19 8.12625 18.9165 8.32757 18.7678 8.47601C18.6191 8.62444 18.4175 8.70783 18.2072 8.70783ZM15.8287 7.91633C15.8287 6.65683 15.3276 5.44891 14.4355 4.55831C13.5434 3.66771 12.3334 3.16737 11.0718 3.16737C10.8615 3.16737 10.6599 3.25076 10.5112 3.39919C10.3625 3.54763 10.279 3.74895 10.279 3.95886C10.279 4.16878 10.3625 4.3701 10.5112 4.51853C10.6599 4.66697 10.8615 4.75036 11.0718 4.75036C11.9129 4.75036 12.7195 5.08392 13.3142 5.67765C13.909 6.27139 14.2431 7.07666 14.2431 7.91633C14.2431 8.12625 14.3266 8.32757 14.4753 8.47601C14.624 8.62444 14.8256 8.70783 15.0359 8.70783C15.2462 8.70783 15.4478 8.62444 15.5965 8.47601C15.7452 8.32757 15.8287 8.12625 15.8287 7.91633ZM17.5595 17.5441L18.2809 16.7138C18.7401 16.2539 18.998 15.631 18.998 14.9816C18.998 14.3322 18.7401 13.7093 18.2809 13.2494C18.2563 13.2249 16.3488 11.7598 16.3488 11.7598C15.891 11.3248 15.2829 11.0825 14.6508 11.0834C14.0188 11.0843 13.4114 11.3282 12.9548 11.7646L11.4437 13.0357C10.2102 12.5261 9.08968 11.7782 8.14654 10.835C7.20341 9.89179 6.4562 8.77189 5.94783 7.53958L7.21634 6.03574C7.65375 5.57998 7.8984 4.97346 7.89944 4.34227C7.90047 3.71107 7.65781 3.10376 7.22189 2.64657C7.22189 2.64657 5.7528 0.744606 5.72822 0.720069C5.27588 0.265553 4.66258 0.00695065 4.02083 0.000138075C3.37908 -0.0066745 2.76041 0.238849 2.29849 0.683661L1.38675 1.47515C-3.99966 7.71371 7.59927 19.2038 14.0544 18.9973C14.7062 19.001 15.3522 18.8744 15.9542 18.6248C16.5562 18.3752 17.1021 18.0077 17.5595 17.5441Z" fill="#222222"/>
</svg>
